<mxfile host="app.diagrams.net" modified="2021-06-19T07:46:44.617Z" agent="5.0 (Windows NT 10.0; Win64; x64) AppleWebKit/537.36 (KHTML, like Gecko) Chrome/91.0.4472.106 Safari/537.36" etag="MNowsZVzCMVDS3Ik4rKM" version="14.8.0" type="github">
  <diagram id="ppoAcKlxX3kwHhm_-xjA" name="Page-1">
    <mxGraphModel dx="700" dy="692" grid="1" gridSize="10" guides="1" tooltips="1" connect="1" arrows="1" fold="1" page="1" pageScale="1" pageWidth="827" pageHeight="1169" math="0" shadow="0">
      <root>
        <mxCell id="0" />
        <mxCell id="1" parent="0" />
        <mxCell id="0FjQryOPYZsFRXdAAh8D-1" value="数据采集层" style="text;strokeColor=none;fillColor=none;align=center;verticalAlign=middle;rounded=0;fontSize=13;" vertex="1" parent="1">
          <mxGeometry x="65" y="170" width="70" height="20" as="geometry" />
        </mxCell>
        <mxCell id="0FjQryOPYZsFRXdAAh8D-2" value="数据融处理平台层" style="text;strokeColor=none;fillColor=none;align=center;verticalAlign=middle;rounded=0;fontSize=13;" vertex="1" parent="1">
          <mxGeometry x="30" y="290" width="120" height="20" as="geometry" />
        </mxCell>
        <mxCell id="0FjQryOPYZsFRXdAAh8D-3" value="应用层" style="text;strokeColor=none;fillColor=none;align=center;verticalAlign=middle;rounded=0;fontSize=13;" vertex="1" parent="1">
          <mxGeometry x="40" y="505" width="120" height="20" as="geometry" />
        </mxCell>
        <mxCell id="0FjQryOPYZsFRXdAAh8D-4" value="数据采集层包括：点钞机、验钞机、纸币清分机、ATM、CRS、TCR" style="rounded=0;fontSize=13;" vertex="1" parent="1">
          <mxGeometry x="200" y="160" width="400" height="40" as="geometry" />
        </mxCell>
        <mxCell id="0FjQryOPYZsFRXdAAh8D-5" value="HDFS" style="rounded=0;fontSize=13;" vertex="1" parent="1">
          <mxGeometry x="270" y="230" width="220" height="30" as="geometry" />
        </mxCell>
        <mxCell id="0FjQryOPYZsFRXdAAh8D-6" value="内在计算、流式计算、MapReduce" style="rounded=0;fontSize=13;" vertex="1" parent="1">
          <mxGeometry x="160" y="285" width="220" height="30" as="geometry" />
        </mxCell>
        <mxCell id="0FjQryOPYZsFRXdAAh8D-7" value="Hbase(实时分布式列存储数据库)" style="rounded=0;fontSize=13;" vertex="1" parent="1">
          <mxGeometry x="414" y="285" width="220" height="30" as="geometry" />
        </mxCell>
        <mxCell id="0FjQryOPYZsFRXdAAh8D-8" value="Hive(数据仓库)" style="rounded=0;fontSize=13;" vertex="1" parent="1">
          <mxGeometry x="160" y="340" width="120" height="30" as="geometry" />
        </mxCell>
        <mxCell id="0FjQryOPYZsFRXdAAh8D-9" value="数据分析、数据查询、数据交换" style="rounded=0;fontSize=13;" vertex="1" parent="1">
          <mxGeometry x="320" y="340" width="220" height="30" as="geometry" />
        </mxCell>
        <mxCell id="0FjQryOPYZsFRXdAAh8D-10" value="MySQI Cluster" style="rounded=0;fontSize=13;" vertex="1" parent="1">
          <mxGeometry x="530" y="380" width="90" height="20" as="geometry" />
        </mxCell>
        <mxCell id="0FjQryOPYZsFRXdAAh8D-11" value="Client API" style="rounded=0;fontSize=13;" vertex="1" parent="1">
          <mxGeometry x="590" y="440" width="86" height="20" as="geometry" />
        </mxCell>
        <mxCell id="0FjQryOPYZsFRXdAAh8D-12" value="系统软件(例：人民币比流通管理系统)" style="rounded=0;fontSize=13;" vertex="1" parent="1">
          <mxGeometry x="260" y="500" width="430" height="30" as="geometry" />
        </mxCell>
        <mxCell id="0FjQryOPYZsFRXdAAh8D-14" value="" style="endArrow=classic;exitX=0.5;exitY=1;exitDx=0;exitDy=0;entryX=0.5;entryY=0;entryDx=0;entryDy=0;fontSize=13;" edge="1" parent="1" source="0FjQryOPYZsFRXdAAh8D-4" target="0FjQryOPYZsFRXdAAh8D-5">
          <mxGeometry width="50" height="50" relative="1" as="geometry">
            <mxPoint x="160" y="280" as="sourcePoint" />
            <mxPoint x="210" y="230" as="targetPoint" />
          </mxGeometry>
        </mxCell>
        <mxCell id="0FjQryOPYZsFRXdAAh8D-15" value="" style="endArrow=classic;exitX=0.25;exitY=1;exitDx=0;exitDy=0;entryX=0.25;entryY=0;entryDx=0;entryDy=0;fontSize=13;" edge="1" parent="1" source="0FjQryOPYZsFRXdAAh8D-5" target="0FjQryOPYZsFRXdAAh8D-6">
          <mxGeometry width="50" height="50" relative="1" as="geometry">
            <mxPoint x="410" y="170" as="sourcePoint" />
            <mxPoint x="390" y="200" as="targetPoint" />
          </mxGeometry>
        </mxCell>
        <mxCell id="0FjQryOPYZsFRXdAAh8D-16" value="" style="endArrow=classic;exitX=0.75;exitY=1;exitDx=0;exitDy=0;entryX=0.25;entryY=0;entryDx=0;entryDy=0;fontSize=13;" edge="1" parent="1" source="0FjQryOPYZsFRXdAAh8D-5" target="0FjQryOPYZsFRXdAAh8D-7">
          <mxGeometry width="50" height="50" relative="1" as="geometry">
            <mxPoint x="335" y="230" as="sourcePoint" />
            <mxPoint x="225" y="294.9999999999999" as="targetPoint" />
          </mxGeometry>
        </mxCell>
        <mxCell id="0FjQryOPYZsFRXdAAh8D-17" value="" style="endArrow=classic;exitX=0.5;exitY=0;exitDx=0;exitDy=0;entryX=1;entryY=1;entryDx=0;entryDy=0;fontSize=13;" edge="1" parent="1" source="0FjQryOPYZsFRXdAAh8D-7" target="0FjQryOPYZsFRXdAAh8D-5">
          <mxGeometry width="50" height="50" relative="1" as="geometry">
            <mxPoint x="445" y="230" as="sourcePoint" />
            <mxPoint x="478.9999999999998" y="294.9999999999999" as="targetPoint" />
          </mxGeometry>
        </mxCell>
        <mxCell id="0FjQryOPYZsFRXdAAh8D-18" value="" style="endArrow=classic;exitX=0.25;exitY=1;exitDx=0;exitDy=0;entryX=0.5;entryY=0;entryDx=0;entryDy=0;fontSize=13;" edge="1" parent="1" source="0FjQryOPYZsFRXdAAh8D-6" target="0FjQryOPYZsFRXdAAh8D-8">
          <mxGeometry width="50" height="50" relative="1" as="geometry">
            <mxPoint x="210" y="470" as="sourcePoint" />
            <mxPoint x="260" y="420" as="targetPoint" />
          </mxGeometry>
        </mxCell>
        <mxCell id="0FjQryOPYZsFRXdAAh8D-19" value="" style="endArrow=classic;exitX=1;exitY=0.5;exitDx=0;exitDy=0;entryX=0;entryY=0.5;entryDx=0;entryDy=0;fontSize=13;" edge="1" parent="1" source="0FjQryOPYZsFRXdAAh8D-8" target="0FjQryOPYZsFRXdAAh8D-9">
          <mxGeometry width="50" height="50" relative="1" as="geometry">
            <mxPoint x="225" y="324.9999999999999" as="sourcePoint" />
            <mxPoint x="230" y="349.9999999999999" as="targetPoint" />
          </mxGeometry>
        </mxCell>
        <mxCell id="0FjQryOPYZsFRXdAAh8D-20" value="" style="endArrow=classic;exitX=0.25;exitY=1;exitDx=0;exitDy=0;entryX=0.75;entryY=0;entryDx=0;entryDy=0;fontSize=13;" edge="1" parent="1" source="0FjQryOPYZsFRXdAAh8D-7" target="0FjQryOPYZsFRXdAAh8D-9">
          <mxGeometry width="50" height="50" relative="1" as="geometry">
            <mxPoint x="390" y="450" as="sourcePoint" />
            <mxPoint x="440" y="400" as="targetPoint" />
          </mxGeometry>
        </mxCell>
        <mxCell id="0FjQryOPYZsFRXdAAh8D-21" value="" style="endArrow=classic;entryX=0.75;entryY=1;entryDx=0;entryDy=0;exitX=0.5;exitY=0;exitDx=0;exitDy=0;fontSize=13;" edge="1" parent="1" source="0FjQryOPYZsFRXdAAh8D-10" target="0FjQryOPYZsFRXdAAh8D-7">
          <mxGeometry width="50" height="50" relative="1" as="geometry">
            <mxPoint x="410" y="470" as="sourcePoint" />
            <mxPoint x="460" y="420" as="targetPoint" />
          </mxGeometry>
        </mxCell>
        <mxCell id="0FjQryOPYZsFRXdAAh8D-22" value="" style="endArrow=classic;entryX=0.954;entryY=0.968;entryDx=0;entryDy=0;entryPerimeter=0;exitX=0.75;exitY=0;exitDx=0;exitDy=0;fontSize=13;" edge="1" parent="1" source="0FjQryOPYZsFRXdAAh8D-11" target="0FjQryOPYZsFRXdAAh8D-7">
          <mxGeometry width="50" height="50" relative="1" as="geometry">
            <mxPoint x="430" y="470" as="sourcePoint" />
            <mxPoint x="480" y="420" as="targetPoint" />
          </mxGeometry>
        </mxCell>
        <mxCell id="0FjQryOPYZsFRXdAAh8D-23" value="" style="endArrow=classic;exitX=0.75;exitY=1;exitDx=0;exitDy=0;entryX=0.25;entryY=0;entryDx=0;entryDy=0;fontSize=13;" edge="1" parent="1" source="0FjQryOPYZsFRXdAAh8D-10" target="0FjQryOPYZsFRXdAAh8D-11">
          <mxGeometry width="50" height="50" relative="1" as="geometry">
            <mxPoint x="410" y="460" as="sourcePoint" />
            <mxPoint x="460" y="410" as="targetPoint" />
          </mxGeometry>
        </mxCell>
        <mxCell id="0FjQryOPYZsFRXdAAh8D-24" value="" style="endArrow=classic;exitX=0.5;exitY=1;exitDx=0;exitDy=0;entryX=0.849;entryY=0.008;entryDx=0;entryDy=0;entryPerimeter=0;fontSize=13;" edge="1" parent="1" source="0FjQryOPYZsFRXdAAh8D-11" target="0FjQryOPYZsFRXdAAh8D-12">
          <mxGeometry width="50" height="50" relative="1" as="geometry">
            <mxPoint x="607.5" y="409.9999999999999" as="sourcePoint" />
            <mxPoint x="621.5000000000002" y="449.9999999999999" as="targetPoint" />
          </mxGeometry>
        </mxCell>
        <mxCell id="0FjQryOPYZsFRXdAAh8D-25" value="" style="endArrow=classic;exitX=0.5;exitY=1;exitDx=0;exitDy=0;entryX=0.668;entryY=0.008;entryDx=0;entryDy=0;entryPerimeter=0;fontSize=13;" edge="1" parent="1" source="0FjQryOPYZsFRXdAAh8D-10" target="0FjQryOPYZsFRXdAAh8D-12">
          <mxGeometry width="50" height="50" relative="1" as="geometry">
            <mxPoint x="617.5" y="419.9999999999999" as="sourcePoint" />
            <mxPoint x="631.5000000000002" y="459.9999999999999" as="targetPoint" />
          </mxGeometry>
        </mxCell>
        <mxCell id="0FjQryOPYZsFRXdAAh8D-26" value="" style="endArrow=classic;exitX=0.5;exitY=0;exitDx=0;exitDy=0;entryX=0.13;entryY=1.15;entryDx=0;entryDy=0;entryPerimeter=0;fontSize=13;" edge="1" parent="1" source="0FjQryOPYZsFRXdAAh8D-12" target="0FjQryOPYZsFRXdAAh8D-10">
          <mxGeometry width="50" height="50" relative="1" as="geometry">
            <mxPoint x="585" y="409.9999999999999" as="sourcePoint" />
            <mxPoint x="557.24" y="510.2399999999999" as="targetPoint" />
          </mxGeometry>
        </mxCell>
      </root>
    </mxGraphModel>
  </diagram>
</mxfile>
